<svg xmlns="http://www.w3.org/2000/svg" viewBox="0 0 64 64">
  <!-- Left building (amber, shorter) -->
  <rect x="2" y="22" width="22" height="40" rx="2" fill="#f59e0b"/>
  <rect x="6" y="28" width="5" height="5" rx="0.5" fill="#1e3a5f" opacity="0.65"/>
  <rect x="14" y="28" width="5" height="5" rx="0.5" fill="#1e3a5f" opacity="0.65"/>
  <rect x="6" y="38" width="5" height="5" rx="0.5" fill="#1e3a5f" opacity="0.65"/>
  <rect x="14" y="38" width="5" height="5" rx="0.5" fill="#1e3a5f" opacity="0.65"/>
  <rect x="6" y="48" width="5" height="5" rx="0.5" fill="#1e3a5f" opacity="0.65"/>
  <rect x="14" y="48" width="5" height="5" rx="0.5" fill="#1e3a5f" opacity="0.65"/>

  <!-- Right building (dark navy, taller) -->
  <rect x="40" y="6" width="22" height="56" rx="2" fill="#1e3a5f"/>
  <rect x="44" y="12" width="5" height="5" rx="0.5" fill="#f59e0b" opacity="0.85"/>
  <rect x="52" y="12" width="5" height="5" rx="0.5" fill="#f59e0b" opacity="0.85"/>
  <rect x="44" y="22" width="5" height="5" rx="0.5" fill="#f59e0b" opacity="0.85"/>
  <rect x="52" y="22" width="5" height="5" rx="0.5" fill="#f59e0b" opacity="0.85"/>
  <rect x="44" y="32" width="5" height="5" rx="0.5" fill="#f59e0b" opacity="0.85"/>
  <rect x="52" y="32" width="5" height="5" rx="0.5" fill="#f59e0b" opacity="0.85"/>
  <rect x="44" y="42" width="5" height="5" rx="0.5" fill="#f59e0b" opacity="0.85"/>
  <rect x="52" y="42" width="5" height="5" rx="0.5" fill="#f59e0b" opacity="0.85"/>

  <!-- Connection line + node -->
  <line x1="24" y1="42" x2="40" y2="42" stroke="#f59e0b" stroke-width="2.5" stroke-linecap="round"/>
  <circle cx="32" cy="42" r="4.5" fill="#f59e0b"/>
  <circle cx="32" cy="42" r="2" fill="#fff"/>
</svg>
